<?xml version="1.0" standalone="no"?>
<!DOCTYPE svg PUBLIC "-//W3C//DTD SVG 20010904//EN"
 "http://www.w3.org/TR/2001/REC-SVG-20010904/DTD/svg10.dtd">
<svg version="1.0" xmlns="http://www.w3.org/2000/svg"
 width="273.000000pt" height="273.000000pt" viewBox="0 0 273.000000 273.000000"
 preserveAspectRatio="xMidYMid meet">
<metadata>
Created by potrace 1.11, written by Peter Selinger 2001-2013
</metadata>
<g transform="translate(0.000000,273.000000) scale(0.100000,-0.100000)"
fill="#000000" stroke="none">
<path d="M1250 2565 c0 -10 -10 -15 -30 -15 -19 0 -30 -5 -30 -14 0 -8 -9 -18
-20 -21 -14 -4 -20 -15 -20 -35 0 -16 -4 -32 -10 -35 -5 -3 -10 -24 -10 -45 0
-21 5 -42 10 -45 6 -3 10 -17 10 -31 0 -14 7 -27 15 -30 8 -4 15 -12 15 -20 0
-8 7 -14 15 -14 9 0 18 -7 21 -15 5 -12 24 -15 84 -15 60 0 79 3 84 15 3 8 15
15 26 15 13 0 24 10 31 27 6 15 15 30 20 34 27 16 21 169 -7 169 -8 0 -14 5
-14 10 0 14 -31 42 -69 63 -41 22 -121 23 -121 2z"/>
<path d="M791 2073 c-40 -14 -81 -44 -81 -59 0 -4 -10 -27 -22 -51 -20 -39
-21 -47 -9 -76 7 -18 15 -42 18 -54 3 -13 11 -23 18 -23 7 0 15 -9 18 -20 3
-11 12 -20 21 -20 9 0 16 -7 16 -15 0 -12 15 -15 75 -15 62 0 79 4 95 20 11
11 26 20 33 20 6 0 23 24 36 52 27 60 26 143 -3 163 -9 7 -16 16 -16 21 0 15
-37 43 -65 50 -14 3 -28 10 -31 15 -8 13 -53 10 -103 -8z"/>
<path d="M1796 2081 c-3 -5 -17 -12 -31 -15 -55 -14 -95 -84 -95 -167 0 -34 4
-59 10 -59 6 0 14 -8 17 -17 10 -26 36 -53 50 -53 7 0 13 -7 13 -15 0 -12 15
-15 74 -15 72 0 76 1 115 37 23 20 41 42 41 49 0 6 7 14 15 18 26 9 20 108 -9
150 -35 52 -46 61 -100 79 -55 19 -92 22 -100 8z"/>
<path d="M275 1532 c-11 -9 -35 -36 -53 -58 -27 -36 -32 -50 -32 -98 0 -31 4
-56 9 -56 5 0 12 -8 16 -19 11 -34 50 -67 101 -84 44 -14 56 -15 97 -2 57 17
96 44 97 67 0 9 7 23 15 32 10 9 15 34 15 69 0 36 -5 59 -15 67 -8 7 -15 17
-15 22 0 5 -16 25 -35 44 -34 32 -39 34 -108 34 -53 -1 -77 -5 -92 -18z"/>
<path d="M2274 1535 c-4 -8 -11 -15 -18 -15 -14 0 -46 -36 -46 -53 0 -6 -7
-21 -15 -31 -20 -27 -20 -102 0 -110 8 -3 15 -15 15 -27 0 -31 39 -63 99 -83
47 -15 55 -15 101 0 28 9 50 20 50 24 0 5 9 12 20 15 11 3 20 13 20 21 0 9 7
22 15 30 10 11 15 36 15 79 0 47 -4 64 -15 69 -8 3 -15 17 -15 31 0 14 -6 25
-13 25 -8 0 -22 9 -32 20 -15 17 -31 20 -97 20 -61 0 -80 -3 -84 -15z"/>
<path d="M750 1075 c-14 -8 -32 -14 -41 -15 -20 0 -69 -51 -69 -72 0 -8 -7
-21 -15 -28 -36 -30 -6 -136 56 -193 29 -26 38 -28 107 -28 41 0 78 4 81 10 4
5 19 14 34 20 19 7 27 18 27 35 0 13 7 26 15 30 11 4 15 22 15 69 0 45 -5 68
-15 77 -8 7 -15 21 -15 31 0 11 -7 19 -15 19 -9 0 -18 7 -21 15 -4 8 -18 15
-34 15 -16 0 -30 4 -32 9 -6 17 -53 21 -78 6z"/>
<path d="M1733 982 c-18 -9 -33 -22 -33 -27 0 -6 -9 -18 -20 -28 -11 -9 -20
-26 -20 -37 0 -11 -4 -20 -10 -20 -12 0 -13 -87 -1 -94 5 -3 12 -17 15 -31 8
-31 36 -60 67 -70 13 -4 29 -14 37 -21 7 -8 27 -14 44 -14 39 0 107 30 108 48
0 6 7 12 15 12 9 0 19 8 22 18 4 9 11 20 17 24 16 11 14 150 -1 156 -7 2 -13
9 -13 16 0 7 -18 29 -41 49 -37 34 -46 37 -97 36 -33 0 -71 -8 -89 -17z"/>
<path d="M1257 512 c-22 -2 -41 -10 -44 -18 -3 -8 -11 -14 -19 -14 -8 0 -14
-6 -14 -14 0 -8 -7 -16 -15 -20 -8 -3 -15 -16 -15 -30 0 -14 -4 -28 -10 -31
-5 -3 -10 -24 -10 -45 0 -21 5 -42 10 -45 6 -3 10 -14 10 -24 0 -20 62 -81 83
-81 7 0 22 -7 33 -15 25 -19 70 -19 78 0 3 8 17 15 31 15 25 0 65 31 65 50 0
6 6 10 14 10 31 0 36 135 6 173 -11 14 -20 28 -20 32 0 4 -11 18 -24 30 -25
23 -84 33 -159 27z"/>
</g>
</svg>
